<svg width="200" height="51" viewBox="0 0 200 51" fill="none" xmlns="http://www.w3.org/2000/svg">
<path d="M40.2903 21.5225C43.3623 21.5225 45.5929 22.4307 46.982 24.2472C48.3711 26.0638 49.0657 28.5615 49.0657 31.7404C49.0657 33.2363 48.8787 34.6388 48.5047 35.9477C48.1307 37.23 47.5564 38.3519 46.7817 39.3136C46.0337 40.2486 45.0854 40.9966 43.9367 41.5576C42.788 42.0918 41.4523 42.359 39.9297 42.359C38.407 42.359 37.0847 42.1319 35.9627 41.6778C34.8675 41.1969 33.9592 40.5157 33.2379 39.6342C32.5167 38.7526 31.9824 37.6841 31.6351 36.4286C31.3146 35.173 31.1543 33.7572 31.1543 32.1811C31.1543 30.6585 31.3413 29.256 31.7153 27.9738C32.0893 26.6648 32.6503 25.5428 33.3982 24.6079C34.1729 23.6462 35.1346 22.8982 36.2833 22.3639C37.432 21.803 38.7676 21.5225 40.2903 21.5225ZM39.8896 24.8884C39.1149 24.8884 38.4738 25.062 37.9662 25.4093C37.4854 25.7565 37.098 26.2507 36.8042 26.8919C36.5371 27.5063 36.3501 28.2409 36.2432 29.0957C36.1364 29.9238 36.0829 30.8187 36.0829 31.7804C36.0829 32.7688 36.1364 33.7038 36.2432 34.5853C36.3768 35.4669 36.6038 36.2416 36.9244 36.9094C37.245 37.5505 37.6724 38.0581 38.2067 38.4321C38.7676 38.8061 39.4755 38.9931 40.3304 38.9931C41.1051 38.9931 41.7328 38.8194 42.2137 38.4722C42.7212 38.1249 43.1086 37.644 43.3757 37.0296C43.6696 36.3885 43.8699 35.6539 43.9768 34.8258C44.0836 33.9976 44.137 33.1027 44.137 32.1411C44.137 31.1527 44.0703 30.2177 43.9367 29.3361C43.8298 28.4546 43.6161 27.6799 43.2956 27.0121C42.975 26.3442 42.5342 25.8233 41.9732 25.4493C41.439 25.0754 40.7444 24.8884 39.8896 24.8884Z" fill="#262628"/>
<path d="M61.191 21.5225C64.263 21.5225 66.4936 22.4307 67.8827 24.2472C69.2718 26.0638 69.9663 28.5615 69.9663 31.7404C69.9663 33.2363 69.7794 34.6388 69.4054 35.9477C69.0314 37.23 68.457 38.3519 67.6823 39.3136C66.9344 40.2486 65.986 40.9966 64.8374 41.5576C63.6887 42.0918 62.353 42.359 60.8303 42.359C59.3077 42.359 57.9854 42.1319 56.8634 41.6778C55.7681 41.1969 54.8599 40.5157 54.1386 39.6342C53.4174 38.7526 52.8831 37.6841 52.5358 36.4286C52.2153 35.173 52.055 33.7572 52.055 32.1811C52.055 30.6585 52.242 29.256 52.616 27.9738C52.9899 26.6648 53.5509 25.5428 54.2989 24.6079C55.0736 23.6462 56.0353 22.8982 57.184 22.3639C58.3326 21.803 59.6683 21.5225 61.191 21.5225ZM60.7903 24.8884C60.0156 24.8884 59.3745 25.062 58.8669 25.4093C58.3861 25.7565 57.9987 26.2507 57.7049 26.8919C57.4377 27.5063 57.2507 28.2409 57.1439 29.0957C57.037 29.9238 56.9836 30.8187 56.9836 31.7804C56.9836 32.7688 57.037 33.7038 57.1439 34.5853C57.2775 35.4669 57.5045 36.2416 57.8251 36.9094C58.1456 37.5505 58.5731 38.0581 59.1073 38.4321C59.6683 38.8061 60.3762 38.9931 61.231 38.9931C62.0057 38.9931 62.6335 38.8194 63.1143 38.4722C63.6219 38.1249 64.0092 37.644 64.2764 37.0296C64.5702 36.3885 64.7706 35.6539 64.8774 34.8258C64.9843 33.9976 65.0377 33.1027 65.0377 32.1411C65.0377 31.1527 64.9709 30.2177 64.8374 29.3361C64.7305 28.4546 64.5168 27.6799 64.1962 27.0121C63.8757 26.3442 63.4349 25.8233 62.8739 25.4493C62.3397 25.0754 61.6451 24.8884 60.7903 24.8884Z" fill="#262628"/>
<path d="M97.0378 41.9583V28.8954C97.0378 27.7734 96.8642 26.8919 96.5169 26.2507C96.1696 25.5829 95.5686 25.249 94.7138 25.249C94.2062 25.249 93.6853 25.3959 93.151 25.6898C92.6435 25.9569 92.176 26.3576 91.7486 26.8919C91.3211 27.4261 90.9739 28.0673 90.7067 28.8152C90.4396 29.5632 90.306 30.3913 90.306 31.2996V41.9583H85.7781V28.8954C85.7781 27.7734 85.6045 26.8919 85.2572 26.2507C84.9099 25.5829 84.3089 25.249 83.454 25.249C82.9198 25.249 82.3855 25.4093 81.8512 25.7298C81.3437 26.0237 80.8762 26.4645 80.4488 27.0521C80.0481 27.6398 79.7141 28.3611 79.447 29.2159C79.2066 30.0441 79.0864 30.979 79.0864 32.0209V41.9583H74.5184V31.8606C74.5184 30.2578 74.4115 28.9221 74.1978 27.8536C73.9841 26.7583 73.757 25.8768 73.5166 25.2089C73.2228 24.4342 72.9022 23.8065 72.5549 23.3256L76.1613 21.8831C76.4284 22.1769 76.6955 22.5376 76.9627 22.965C77.1764 23.339 77.3901 23.8065 77.6038 24.3674C77.8175 24.9017 77.9911 25.5161 78.1247 26.2107C78.7925 24.6079 79.7275 23.4592 80.9296 22.7646C82.1584 22.0434 83.454 21.6827 84.8164 21.6827C86.1788 21.6827 87.234 22.03 87.982 22.7246C88.7567 23.4191 89.331 24.314 89.705 25.4093C90.4262 24.0736 91.3479 23.1253 92.4698 22.5643C93.6185 21.9766 94.8206 21.6827 96.0761 21.6827C97.118 21.6827 97.9862 21.8564 98.6807 22.2037C99.402 22.5242 99.9629 22.9917 100.364 23.6061C100.791 24.1938 101.098 24.9151 101.285 25.7699C101.472 26.598 101.566 27.533 101.566 28.5748V41.9583H97.0378Z" fill="#262628"/>
<path d="M105.556 32.4616C105.556 30.6718 105.797 29.0957 106.278 27.7333C106.785 26.371 107.467 25.2356 108.321 24.3274C109.203 23.3924 110.231 22.6979 111.407 22.2437C112.582 21.7629 113.851 21.5225 115.213 21.5225C116.416 21.5225 117.431 21.6694 118.259 21.9632C119.114 22.2571 119.808 22.6578 120.342 23.1653C120.877 23.6729 121.264 24.2739 121.504 24.9685C121.772 25.663 121.905 26.411 121.905 27.2124C121.905 28.1741 121.638 29.0957 121.104 29.9773C120.569 30.8321 119.795 31.5934 118.78 32.2613C117.791 32.9024 116.589 33.4233 115.173 33.824C113.758 34.198 112.168 34.3983 110.405 34.4251C110.485 35.0395 110.605 35.6272 110.766 36.1882C110.953 36.7224 111.206 37.2033 111.527 37.6307C111.874 38.0314 112.315 38.3519 112.849 38.5924C113.384 38.8328 114.051 38.953 114.853 38.953C115.44 38.953 116.068 38.8862 116.736 38.7526C117.404 38.6191 118.018 38.4588 118.579 38.2718C119.247 38.0581 119.902 37.8177 120.543 37.5505L121.745 40.3955C121.05 40.7428 120.302 41.05 119.501 41.3171C118.806 41.5576 118.005 41.7713 117.097 41.9583C116.188 42.1453 115.227 42.2387 114.212 42.2387C112.662 42.2387 111.34 42.0117 110.245 41.5576C109.149 41.0767 108.255 40.4089 107.56 39.554C106.865 38.6992 106.358 37.6707 106.037 36.4686C105.717 35.2665 105.556 33.9309 105.556 32.4616ZM114.853 24.6479C113.971 24.6479 113.237 24.8616 112.649 25.2891C112.088 25.6898 111.634 26.224 111.287 26.8919C110.939 27.533 110.685 28.2676 110.525 29.0957C110.392 29.8971 110.311 30.7119 110.285 31.54C111.567 31.4866 112.649 31.3263 113.53 31.0592C114.439 30.7653 115.173 30.418 115.734 30.0173C116.295 29.5899 116.696 29.1358 116.936 28.655C117.204 28.1741 117.337 27.6933 117.337 27.2124C117.337 26.4377 117.11 25.8233 116.656 25.3692C116.202 24.8884 115.601 24.6479 114.853 24.6479Z" fill="#262628"/>
<path d="M134.834 26.1706C134.353 26.1706 133.872 26.2908 133.392 26.5312C132.911 26.7717 132.483 27.1056 132.109 27.533C131.735 27.9337 131.428 28.4279 131.188 29.0156C130.947 29.6033 130.827 30.2578 130.827 30.979V41.9583H126.259V31.8606C126.259 30.2578 126.152 28.9221 125.938 27.8536C125.725 26.7583 125.498 25.8768 125.257 25.2089C124.963 24.4342 124.643 23.8065 124.296 23.3256L127.902 21.8831C128.142 22.1769 128.396 22.5376 128.663 22.965C128.877 23.339 129.091 23.7797 129.304 24.2873C129.518 24.7949 129.692 25.3959 129.825 26.0905C130.36 24.5411 131.134 23.4325 132.149 22.7646C133.164 22.0701 134.313 21.7228 135.595 21.7228C136.21 21.7228 136.784 21.803 137.318 21.9632C137.853 22.0968 138.106 22.1636 138.08 22.1636L136.797 26.6114C136.824 26.6114 136.664 26.5446 136.317 26.411C135.996 26.2507 135.502 26.1706 134.834 26.1706Z" fill="#262628"/>
<path d="M155.785 32.3013C155.785 33.9042 155.879 35.2532 156.066 36.3484C156.28 37.417 156.507 38.2852 156.747 38.953C157.041 39.7544 157.362 40.3822 157.709 40.8363L154.143 42.2788C153.795 41.9315 153.475 41.5175 153.181 41.0366C152.94 40.6092 152.713 40.1017 152.5 39.514C152.286 38.8996 152.152 38.1783 152.099 37.3502C151.645 38.953 150.91 40.1685 149.895 40.9966C148.907 41.798 147.558 42.1987 145.848 42.1987C144.592 42.1987 143.497 41.9716 142.562 41.5175C141.654 41.0366 140.893 40.3688 140.278 39.514C139.664 38.6324 139.21 37.5773 138.916 36.3484C138.622 35.1196 138.475 33.7572 138.475 32.2613C138.475 30.7386 138.702 29.3361 139.156 28.0539C139.637 26.7449 140.292 25.623 141.12 24.688C141.975 23.753 142.99 23.0184 144.165 22.4841C145.34 21.9499 146.636 21.6827 148.052 21.6827C148.853 21.6827 149.681 21.7495 150.536 21.8831C151.418 21.9899 152.233 22.1102 152.981 22.2437C153.728 22.3773 154.356 22.5109 154.864 22.6444C155.398 22.7513 155.705 22.8181 155.785 22.8448V32.3013ZM146.609 38.9931C147.277 38.9931 147.892 38.766 148.453 38.3119C149.014 37.8577 149.494 37.27 149.895 36.5488C150.323 35.8008 150.643 34.9593 150.857 34.0244C151.097 33.0627 151.217 32.0876 151.217 31.0992V25.3291C150.95 25.249 150.55 25.1555 150.015 25.0486C149.481 24.9418 149 24.8884 148.573 24.8884C147.558 24.8884 146.716 25.062 146.048 25.4093C145.407 25.7565 144.886 26.2374 144.486 26.8518C144.085 27.4662 143.804 28.2008 143.644 29.0557C143.484 29.9105 143.404 30.8455 143.404 31.8606C143.404 32.7955 143.43 33.6904 143.484 34.5453C143.537 35.4001 143.671 36.1614 143.885 36.8293C144.125 37.4971 144.459 38.0314 144.886 38.4321C145.314 38.8061 145.888 38.9931 146.609 38.9931Z" fill="#262628"/>
<path d="M173 41.9583V29.0156C173 27.8936 172.799 26.9987 172.399 26.3309C171.998 25.6363 171.317 25.2891 170.355 25.2891C169.741 25.2891 169.14 25.4493 168.552 25.7699C167.991 26.0638 167.483 26.5045 167.029 27.0922C166.575 27.6799 166.201 28.4012 165.907 29.256C165.64 30.0841 165.507 31.0191 165.507 32.0609V41.9583H160.939V31.8606C160.939 30.2578 160.832 28.9221 160.618 27.8536C160.404 26.7583 160.177 25.8768 159.937 25.2089C159.643 24.4342 159.322 23.8065 158.975 23.3256L162.581 21.8831C162.849 22.1769 163.116 22.5376 163.383 22.965C163.596 23.339 163.81 23.8065 164.024 24.3674C164.238 24.9017 164.411 25.5161 164.545 26.2107C165.239 24.6079 166.241 23.4592 167.55 22.7646C168.859 22.0434 170.235 21.6827 171.677 21.6827C173.734 21.6827 175.217 22.3105 176.125 23.566C177.06 24.7949 177.528 26.4645 177.528 28.5748V41.9583H173Z" fill="#262628"/>
<path d="M185.775 45.4844C186.176 45.6447 186.603 45.805 187.057 45.9653C187.512 46.1523 187.992 46.3259 188.5 46.4862C189.007 46.6465 189.515 46.78 190.023 46.8869C190.557 46.9937 191.078 47.0472 191.585 47.0472C193.081 47.0472 194.163 46.593 194.831 45.6848C195.499 44.8032 195.833 43.6546 195.833 42.2387C195.833 40.8496 195.539 39.4472 194.951 38.0314C194.497 39.3938 193.776 40.4356 192.787 41.1569C191.826 41.8514 190.544 42.1987 188.941 42.1987C187.685 42.1987 186.59 41.9716 185.655 41.5175C184.747 41.0366 183.985 40.3688 183.371 39.514C182.757 38.6324 182.302 37.5773 182.009 36.3484C181.715 35.1196 181.568 33.7572 181.568 32.2613C181.568 30.7386 181.795 29.3361 182.249 28.0539C182.73 26.7449 183.384 25.623 184.212 24.688C185.067 23.753 186.082 23.0184 187.258 22.4841C188.433 21.9499 189.729 21.6827 191.145 21.6827C191.786 21.6827 192.467 21.7228 193.188 21.803C193.936 21.8831 194.657 21.9899 195.352 22.1235C196.073 22.2304 196.741 22.3506 197.355 22.4841C197.997 22.6177 198.544 22.7379 198.998 22.8448L198.798 33.8641C198.771 34.6655 198.811 35.4001 198.918 36.0679C199.052 36.7358 199.199 37.4036 199.359 38.0715C199.519 38.7126 199.666 39.3671 199.8 40.0349C199.933 40.7027 200 41.4373 200 42.2387C200 45.0704 199.279 47.1807 197.836 48.5698C196.394 49.9589 194.444 50.6535 191.986 50.6535C191.185 50.6535 190.383 50.5733 189.582 50.4131C188.78 50.2795 188.032 50.1192 187.338 49.9322C186.67 49.7452 186.096 49.5582 185.615 49.3712C185.134 49.1842 184.813 49.0507 184.653 48.9705L185.775 45.4844ZM189.702 38.9931C190.343 38.9931 190.931 38.7794 191.465 38.3519C192.026 37.9245 192.52 37.3635 192.948 36.669C193.375 35.9477 193.709 35.133 193.949 34.2247C194.19 33.3165 194.31 32.3815 194.31 31.4198V25.3291C194.043 25.249 193.642 25.1555 193.108 25.0486C192.574 24.9418 192.093 24.8884 191.665 24.8884C190.65 24.8884 189.809 25.062 189.141 25.4093C188.5 25.7565 187.979 26.2374 187.578 26.8518C187.178 27.4662 186.897 28.2008 186.737 29.0557C186.577 29.9105 186.496 30.8455 186.496 31.8606C186.496 32.7955 186.523 33.6904 186.577 34.5453C186.63 35.4001 186.764 36.1614 186.977 36.8293C187.218 37.4971 187.552 38.0314 187.979 38.4321C188.406 38.8061 188.981 38.9931 189.702 38.9931Z" fill="#262628"/>
<path d="M11.7637 46.5842L18.7288 39.589C20.1138 38.198 20.446 36.0778 19.5524 34.3322L14.3504 24.171C14.0046 23.4954 14.2023 22.6696 14.817 22.2225C15.508 21.7199 16.4771 21.8707 16.9815 22.5593L25.9248 34.7696C27.407 36.7932 26.9624 39.6312 24.9317 41.1083L13.9157 49.1212C13.2096 49.6348 12.0954 49.3986 11.5312 48.7331C10.9596 48.0588 11.1398 47.2108 11.7637 46.5842Z" fill="#262628"/>
<path d="M14.3546 22.6931L19.3129 14.7218C20.1646 13.3524 20.0378 11.5927 18.9983 10.3588L13.2114 3.4895C13.0408 3.28696 12.9473 3.03097 12.9473 2.76653C12.9473 1.8186 14.052 1.29603 14.789 1.89536L24.1845 9.53611C25.7471 10.8845 25.9169 13.2399 24.5638 14.7971L16.3999 24.1926C15.9395 24.7225 15.1352 24.7801 14.6034 24.3212C14.1304 23.9131 14.025 23.223 14.3546 22.6931Z" fill="#262628"/>
<path d="M2.40428 8.85718C2.27221 4.85168 5.52324 1.54748 9.54445 1.60023L8.20833 42.461L3.51211 42.4567L2.40428 8.85718Z" fill="#262628"/>
</svg>
