<svg width="139" height="103" viewBox="0 0 139 103" fill="none" xmlns="http://www.w3.org/2000/svg">
<path d="M5 0.5C2.51472 0.5 0.5 2.51472 0.5 5C0.5 7.48528 2.51472 9.5 5 9.5V0.5ZM134 9.5C136.485 9.5 138.5 7.48528 138.5 5C138.5 2.51472 136.485 0.5 134 0.5V9.5ZM5 47C2.51472 47 0.5 49.0147 0.5 51.5C0.5 53.9853 2.51472 56 5 56V47ZM114.154 56C116.639 56 118.654 53.9853 118.654 51.5C118.654 49.0147 116.639 47 114.154 47V56ZM5 93.5C2.51472 93.5 0.5 95.5147 0.5 98C0.5 100.485 2.51472 102.5 5 102.5V93.5ZM69.5 102.5C71.9853 102.5 74 100.485 74 98C74 95.5147 71.9853 93.5 69.5 93.5V102.5ZM5 9.5H134V0.5H5V9.5ZM5 56H114.154V47H5V56ZM5 102.5H69.5V93.5H5V102.5Z" fill="black"/>
</svg>
